# File created by Blade
# Date/Time:  Thu Sep 25 15:41:58 2014
# Frame Rate: 120.000 fps
#------------------------------------------------------
:FULLY-SPECIFIED
:DEGREES
533
root -18.184399 36.415745 -1.037257 191.118619 -74.012540 -5.504307
Spine -27.179612 9.748726 0.278327
Head -82.560419 9.441380 3.046349
LeftShoulder -19.634266 34.540734 12.498314
LeftArm 176.185503 -57.583706 -118.614550
LeftForeArm 5.332943 -0.000000 22.560363
LeftHand -40.382476 -0.000000 87.052339
LeftHandThumb1 -26.253704 0.000000 33.147579
RightShoulder -14.981233 8.370194 -26.276641
RightArm 109.379541 45.937968 62.768473
RightForeArm -13.212341 0.000000 27.697410
RightHand -5.977897 -0.000000 -76.039452
RightHandThumb1 -24.326973 -0.000000 -32.862282
LeftUpLeg 7.799793 37.045286 56.294269
LeftLeg -4.628742 -0.000000 0.000000
LeftFoot 35.487558 33.440184 -12.019315
LeftToeBase 16.579106 -0.000000 -0.000000
RightUpLeg 12.262121 -32.228565 -44.736035
RightLeg -0.939201 -0.000000 0.000000
RightFoot 38.288543 0.143712 7.907873
RightToeBase 6.047611 -0.000000 -0.000000
534
root -18.224577 36.412406 -1.068762 190.935523 -73.829620 -4.972565
Spine -27.508418 9.492601 0.221225
Head -82.808778 9.862416 3.391824
LeftShoulder -19.726268 34.414375 12.504928
LeftArm 176.773957 -57.997334 -118.806476
LeftForeArm 5.210901 0.000000 22.167568
LeftHand -40.321548 0.000000 87.024589
LeftHandThumb1 -26.253704 0.000000 33.147579
RightShoulder -15.018486 8.289763 -25.916301
RightArm 109.487436 46.013229 62.421433
RightForeArm -12.546556 -0.000000 27.234124
RightHand -5.993071 -0.000000 -76.284324
RightHandThumb1 -24.326973 -0.000000 -32.862282
LeftUpLeg 8.649576 37.468722 58.609301
LeftLeg -4.896227 -0.000000 0.000000
LeftFoot 35.582400 33.235183 -11.769112
LeftToeBase 16.349840 -0.000000 -0.000000
RightUpLeg 12.129957 -32.022465 -46.306027
RightLeg -1.111888 -0.000000 0.000000
RightFoot 38.505597 0.029509 7.774654
RightToeBase 5.940533 -0.000000 -0.000000
535
root -18.265500 36.410540 -1.098212 190.820109 -73.633291 -4.460721
Spine -27.873330 9.180599 0.240680
Head -83.062280 10.181053 3.682863
LeftShoulder -19.849609 34.132049 12.562039
LeftArm 176.946647 -58.259375 -118.727110
LeftForeArm 5.350770 -0.000000 21.799966
LeftHand -40.238141 -0.000000 87.012397
LeftHandThumb1 -26.253704 0.000000 33.147579
RightShoulder -15.083549 8.194046 -25.644382
RightArm 109.905134 45.891636 62.448570
RightForeArm -12.113104 -0.000000 26.666329
RightHand -5.916841 -0.000000 -76.480161
RightHandThumb1 -24.326973 -0.000000 -32.862282
LeftUpLeg 9.378165 37.580216 60.836617
LeftLeg -5.030408 -0.000000 0.000000
LeftFoot 35.638644 33.207441 -11.511319
LeftToeBase 16.259416 -0.000000 -0.000000
RightUpLeg 11.930867 -31.867315 -47.872385
RightLeg -1.273874 -0.000000 0.000000
RightFoot 38.743903 0.261128 7.366675
RightToeBase 5.627471 -0.000000 -0.000000
536
root -18.306937 36.406650 -1.123547 190.884430 -73.478055 -4.160172
Spine -28.212035 8.839019 0.216750
Head -83.372974 10.404295 3.925236
LeftShoulder -19.914453 33.925362 12.510819
LeftArm 177.477455 -58.600857 -118.851748
LeftForeArm 5.388557 0.000000 21.330842
LeftHand -40.054082 -0.000000 86.921879
LeftHandThumb1 -26.253704 0.000000 33.147579
RightShoulder -15.191613 7.994230 -25.360706
RightArm 110.452427 45.799593 62.521736
RightForeArm -11.586303 -0.000000 26.041026
RightHand -5.842707 0.000000 -76.732726
RightHandThumb1 -24.326973 -0.000000 -32.862282
LeftUpLeg 10.011157 37.473230 62.915246
LeftLeg -5.110158 -0.000000 0.000000
LeftFoot 35.683395 33.329853 -11.494984
LeftToeBase 16.018905 -0.000000 -0.000000
RightUpLeg 11.763968 -31.521351 -49.496083
RightLeg -1.394615 -0.000000 0.000000
RightFoot 38.783726 0.327768 7.267345
RightToeBase 5.842022 -0.000000 -0.000000
537
root -18.350562 36.402163 -1.142792 191.171155 -73.343455 -4.056523
Spine -28.560202 8.402468 0.163777
Head -83.776924 10.575978 4.238794
LeftShoulder -20.208372 33.951727 12.325741
LeftArm 178.204149 -58.535519 -119.161577
LeftForeArm 5.700189 0.000000 21.065180
LeftHand -41.065447 -0.000000 86.170337
LeftHandThumb1 -26.253704 0.000000 33.147579
RightShoulder -15.176199 8.054947 -25.113382
RightArm 110.410143 45.796258 62.131772
RightForeArm -10.916743 -0.000000 25.653614
RightHand -5.806063 -0.000000 -76.921433
RightHandThumb1 -24.326973 -0.000000 -32.862282
LeftUpLeg 10.529620 37.362675 64.837499
LeftLeg -5.154851 -0.000000 0.000000
LeftFoot 35.932972 33.171370 -11.170987
LeftToeBase 16.396260 -0.000000 -0.000000
RightUpLeg 11.558023 -31.064892 -51.136441
RightLeg -1.480512 -0.000000 0.000000
RightFoot 38.967692 0.568958 6.693611
RightToeBase 5.135432 -0.000000 -0.000000
538
root -18.400514 36.393869 -1.153783 191.773032 -73.261537 -4.248256
Spine -28.904664 7.950528 0.041003
Head -84.279992 10.702690 4.360827
LeftShoulder -20.332822 33.564698 12.305108
LeftArm 178.340580 -58.709493 -118.977169
LeftForeArm 5.897220 -0.000000 20.668813
LeftHand -41.101481 0.000000 86.069900
LeftHandThumb1 -26.253704 0.000000 33.147579
RightShoulder -15.212470 7.854467 -24.762026
RightArm 110.939159 45.832326 62.164526
RightForeArm -10.470642 -0.000000 25.226528
RightHand -5.706143 -0.000000 -76.991744
RightHandThumb1 -24.326973 -0.000000 -32.862282
LeftUpLeg 10.909165 37.286920 66.550512
LeftLeg -5.158681 -0.000000 0.000000
LeftFoot 36.081333 33.078611 -11.160065
LeftToeBase 16.488465 -0.000000 -0.000000
RightUpLeg 11.344874 -30.482856 -52.833808
RightLeg -1.487757 -0.000000 0.000000
RightFoot 39.138076 0.626613 6.114500
RightToeBase 4.394230 -0.000000 -0.000000
539
root -18.456230 36.381826 -1.158658 192.583968 -73.271406 -4.589220
Spine -29.308391 7.383289 -0.122460
Head -84.817016 10.889665 4.552613
LeftShoulder -20.650468 33.316193 12.183359
LeftArm 178.597888 -58.651973 -118.827859
LeftForeArm 6.190165 -0.000000 20.215081
LeftHand -41.004463 -0.000000 86.030863
LeftHandThumb1 -26.253704 0.000000 33.147579
RightShoulder -15.186385 7.836828 -24.416509
RightArm 111.122326 45.917874 61.912070
RightForeArm -9.877264 -0.000000 24.874365
RightHand -5.635689 -0.000000 -77.190359
RightHandThumb1 -24.326973 -0.000000 -32.862282
LeftUpLeg 11.088414 37.358655 68.055788
LeftLeg -5.184353 -0.000000 0.000000
LeftFoot 36.401934 32.585699 -10.596616
LeftToeBase 16.749285 -0.000000 -0.000000
RightUpLeg 11.175439 -30.119206 -54.577050
RightLeg -1.461826 -0.000000 0.000000
RightFoot 39.347974 0.891610 5.296879
RightToeBase 3.748790 -0.000000 -0.000000
